<svg viewBox="0 0 22 6" focusable="false" class="Icon-module--nk-icon--6Tsk2 Logo-module--nk-logo--f5Fxz Logo-module--nk-logo--organization--mAvhv Logo-module--nk-logo--organization--size-default--9KTPy Icon-module--nk-icon--size-md--W-jfk Icon-module--nk-icon--color-default--UEgiW Icon-module--nk-icon--theme-dark--color-default--aM2ju" xmlns="http://www.w3.org/2000/svg"><title>Nutmeg Logo</title><path fill="rgb(255, 255, 255)" d="M2.81 0v.08c.41.06.47.5.47 1.14v1.66L1.4.02H.06v.07a.53.53 0 01.42.46v2.84c0 .63-.01 1.13-.36 1.14v.08h1.17v-.08C.88 4.47.82 4.03.82 3.4V.73l2.6 3.87h.2V1.22c0-.63.01-1.13.36-1.14V0z"></path><g><path fill="rgb(255, 255, 255)" d="M7 3.67V1.19h-.04l-1.14.07v.08c.2.07.33.23.33.62V3.9a1.2 1.2 0 01-.6.2c-.39 0-.46-.27-.46-.7V1.2h-.05l-1.14.08v.07c.21.08.33.23.33.63v1.64c0 .6.28.96.81.96a1.78 1.78 0 001.14-.53l.1.53h.05l1-.18v-.08c-.2-.08-.3-.26-.33-.65z"></path><path fill="rgb(255, 255, 255)" d="M14.44 3.82V2.15c0-.62-.28-.96-.8-.96a1.63 1.63 0 00-1.13.55.71.71 0 00-.77-.55 1.54 1.54 0 00-1.08.5v-.5h-.04l-2.12.06V.33h-.07a2.05 2.05 0 01-1.04 1l-.09.05v.16h.32V3.7c0 .62.3.87.8.87a1.55 1.55 0 001.09-.57l-.1-.1a.84.84 0 01-.5.2c-.27 0-.42-.16-.42-.48v-2.1l1.08-.03c.23 0 .21.25.21.58v1.72c0 .4-.01.6-.27.6v.08h1.41V4.4c-.26 0-.27-.22-.27-.61V1.82a1.04 1.04 0 01.55-.2c.4 0 .47.27.47.7v1.44c0 .4-.02.61-.28.61v.08h1.42v-.08c-.26 0-.27-.21-.27-.6V2.08a1.66 1.66 0 00-.02-.27.97.97 0 01.56-.2c.4 0 .48.27.48.7v1.44c0 .4-.02.61-.28.61v.08h1.42v-.08c-.23.06-.26-.15-.26-.55z"></path><path fill="rgb(255, 255, 255)" d="M17.36 3.66a1.06 1.06 0 01-.8.44c-.8 0-1-.42-1-1.55h1.91a1.14 1.14 0 00-1.17-1.37 1.61 1.61 0 00-1.57 1.75 1.47 1.47 0 001.42 1.64 1.51 1.51 0 001.34-.85zm-1.08-2.28c.38 0 .54.32.5.99h-1.21c.03-.55.29-1 .71-1z"></path><path fill="rgb(255, 255, 255)" d="M19.74 3.75h-1.08c-.2 0-.25-.08-.25-.18 0-.1.04-.16.18-.26a1.78 1.78 0 00.48.06 1.12 1.12 0 001.27-1.11 1.06 1.06 0 00-.28-.73l.61.06.1-.4-1.09.1a1.74 1.74 0 00-.62-.11 1.12 1.12 0 00-1.26 1.1 1 1 0 00.62.98c-.38.21-.6.43-.6.72s.17.5.57.5h1.2c.43 0 .66.21.66.53 0 .44-.41.7-.92.7-.6 0-.97-.27-.97-.73a.71.71 0 01.14-.43h-.16l-.1.05c-.28.14-.55.3-.55.65 0 .38.38.75 1.17.75.91 0 1.9-.55 1.9-1.38 0-.55-.38-.84-1.02-.87zm-.71-2.38c.38 0 .5.37.5.93s-.12.95-.5.95-.5-.38-.5-.95.13-.94.5-.93z"></path><path fill="rgb(255, 255, 255)" d="M21.46 3.6a.5.5 0 00-.5.48.52.52 0 00.5.5.5.5 0 00.48-.5.48.48 0 00-.48-.48z"></path></g></svg>