<?xml version="1.0" encoding="UTF-8"?><svg xmlns="http://www.w3.org/2000/svg" viewBox="0 0 918.01 468.1"><defs><style>.d{fill:#fff;}</style></defs><g id="a"/><g id="b"><g id="c"><g><g><path class="d" d="M398.65,203.68h0c.35-.28,.7-.55,1.07-.85,1.28-1.03,2.61-2.09,4.01-3.07,1.25-.87,1.38-1.41,1.39-1.93,.09-2.76,1.46-4.93,4.18-6.63,1.31-.82,2.64-1.62,3.97-2.42,.83-.5,1.67-1,2.5-1.51,.55-.34,1.09-.68,1.64-1.03,.57-.36,1.14-.72,1.71-1.08,0,.02,.03-.02,.04-.15,.05-.64,.13-1.29,.2-1.93,.08-.65,.15-1.29,.2-1.94,0,.03-.02-.02-.04-.08-.87-2.09-1.77-4.17-2.67-6.24l-.11-.26c-.05-.11-.09-.23-.15-.34-.11-.12-.23-.23-.34-.35-.38,.45-.77,.9-1.16,1.36l-.07,.08h0c-.07,.08-.15,.18-.18,.24-1.52,2.73-3.64,4.89-5.86,7.04-.33,.32-.38,.44-.39,.45,.06,.58-.02,1.18-.21,1.8-.04,.12-.08,.24-.12,.36-.07,.18-.14,.35-.22,.53-1.94,4.08-4.61,7.52-6.71,10.06-.56,.68-1.31,1.59-2.51,1.96-1.4,.44-2.48,1.59-3.62,2.81-1.52,1.63-3.08,3.23-4.63,4.83l-1.14,1.17c-.46,.47-.92,.94-1.38,1.41-.86,.87-1.67,1.69-2.46,2.55-.02,.02-.03,.04-.05,.06,0,.7-.15,1.29-.36,1.78,3.67-2,7.25-4.2,10.72-6.6,.93-.64,1.83-1.35,2.75-2.07Z"/><path class="d" d="M391.47,310.01c.05-.42,.11-.83,.16-1.25,.26-2.19,.53-4.38,.82-6.56-4.08-1.85-7.75-4.3-11.32-6.67-1.14-.76-2.28-1.51-3.43-2.25-.57-.37-1.05-.79-1.4-1.1-.11-.1-.21-.19-.3-.26l-1.15-.94,.47-2.48c.12-.64,.23-1.2,.32-1.76,.05-.3,.07-.6,.09-.9,.06-.75,.13-1.61,.43-2.5,2.97-8.85,4.85-17.97,6.44-26.51,.44-2.39,1.15-4.69,1.83-6.92,.12-.38,.24-.77,.35-1.15-1.19,1.44-2.45,2.93-3.77,4.38l-.28,.31c-.52,.58-1.1,1.24-1.87,1.8-.76,.56-2.05,1.11-3.37,.96-4.47-.49-8.11-.93-11.46-1.4l-.4-.06c-.84-.12-1.8-.25-2.02-.2-.25,.09-1.13,.94-1.56,1.35-1.72,1.64-3.66,2.11-5.92,1.45h0l-.46,.78c-2.64,4.47-5.38,9.1-8.11,13.63-.79,1.31-1.73,2.65-2.95,4.22-.76,.98-1.62,1.99-2.76,2.72-1.49,.96-3.03,1.87-4.51,2.75-1.17,.7-2.34,1.39-3.5,2.12-1.21,.76-2.41,1-3.66,.75-.8-.16-1.61-.32-2.41-.47-1.59-.3-3.24-.62-4.87-1h-.01c-1.97,2.41-4.49,2.7-7.12,.79-.31-.22-.71-.44-1.14-.67l-3.94-2.12c-1.18-.63-2.36-1.27-3.54-1.91-.25,1.6-.51,3.21-.75,4.81-.61,4.01-1.23,8.01-1.75,12.03-.32,2.51-.46,5.05-.69,7.57-.21,2.22-.46,4.43-.67,6.65v.14h90.19s.01-.09,.02-.14Z"/><path class="d" d="M391.74,242.8c1.14-.19,2.19-.82,3.42-1.55,.48-.29,.98-.58,1.51-.87-.63-.09-1.17-.32-1.62-.61-.56,.33-1.12,.64-1.68,.96-1.05,.59-2.04,1.15-2.97,1.77-.24,.16-.46,.32-.68,.49,.1-.01,.21-.02,.32-.03h.17c.55-.05,1.08-.08,1.55-.16Z"/><path class="d" d="M287.19,279.87c.25-.26,.53-.49,.74-.77,1.21-1.59,2.65-2.51,4.79-2.72,1.8-.18,3.57-.92,5.06-2.25,.22-.19,.48-.34,.77-.46-.05-.18-.1-.36-.13-.57-.13-.13-.26-.25-.37-.38l-.62-.71v-3.88l1.38-.16c.25-.54,.31-.8,.24-1.08-.78-2.94-.34-5.49,1.3-7.58,.02-.04,.04-.09,.06-.13,.1-.21,.21-.43,.33-.63,.51-.84,1.02-1.68,1.53-2.52,1.49-2.46,3.03-5.01,4.63-7.48,.79-1.22,1.91-2.07,2.99-2.84,1.99-1.41,3.52-2.71,4.54-4.5,2.53-4.44,5.2-8.87,7.78-13.16l.59-.98c.2-.33,.4-.66,.6-.99,1.55-2.57,3.09-5.11,4.63-7.64,1.64-2.68,3.27-5.34,4.93-7.98,.48-.77,.44-.9,.38-1.14-.21-.73-.86-2.96,.34-5.2,.48-.9,.95-1.8,1.43-2.7,.76-1.44,1.51-2.88,2.29-4.31,.4-.74,1.08-1.79,2.23-2.29,1.17-.51,2.35-.9,3.5-1.27l.76-.25c.67-.23,1.46-.24,2.16-.04,2.18,.61,4.36,1.23,6.45,2.56,1.18,.76,2.42,1.42,3.74,2.13l1.12,.6c.69,.38,1.39,.74,2.11,1.12,.95-2.29,1.9-4.58,2.84-6.87l1.02-2.49c.06-.16,.13-.31,.2-.47,.09-.22,.19-.43,.26-.65,.83-2.69,1.77-5.37,2.68-7.97,1.53-4.37,3.11-8.88,4.17-13.41,.61-2.59,1.94-4.02,3.97-4.25,.06-.09,.13-.19,.19-.28,1.54-2.37,3.44-2.9,4.94-2.85,.41-.75,.81-1.44,1.21-2.14,.06-.1,.12-.2,.17-.3,.92-1.6,1.79-3.13,2.44-4.71,1.32-3.2,3.37-5.15,6.46-6.14,.42-.14,.97-.55,1.24-.94,1.59-2.28,3.18-4.79,5.01-7.89,.44-.74,.57-1.42,.41-2.13-.41-1.84-.11-3.78,.87-5.46,2.74-4.73,5.49-9.31,9.11-13.33,.59-.65,.62-.93,.61-1.27-.1-3.11,1.36-5.69,4.12-7.27,.04-.02,.07-.04,.09-.06,.3-.57,.54-1.14,.76-1.69-3.76-1.47-7.75-2.13-11.89-2.33-2.69-.13-5.26,.25-7.45,2.06-.32,.27-.96,.34-1.4,.25-1.69-.33-3.35-.77-5.03-1.15-.95-.21-1.91-.39-2.95-.59,.6-.67,1.33-1.12,1.44-1.68,.21-1.08,.12-2.23,.02-3.33-.03-.36-.49-.71-.78-1.03-.4-.44-.83-.85-1.25-1.27-.43-.42-.8-.95-1.31-1.24-1.01-.57-2.07-1.09-3.16-1.47-1.78-.61-1.84-.74-.88-2.42,1.26-2.2,2.5-4.42,3.67-6.67,.53-1.03,1.22-1.81,2.16-2.48,1.48-1.05,3.07-2,4.06-3.61,.69-1.12,1.45-2.21,2.08-3.37,.36-.65,.73-1.41,.75-2.13,.04-1.82-.1-3.64-.18-5.46-.07-1.5-.65-2.65-2.29-3.07,.05-.47,.03-.87,.14-1.25,.63-2.18,.61-4.42,.4-6.62-.2-2.06-.66-4.11-1.26-6.09-.36-1.18-.24-2.07,.3-3.14,.71-1.41,1.19-2.97,.95-4.55-.32-2.05-1.46-3.76-2.69-5.4-.11-.14-.4-.14-.76-.26,.39,1.48,1.32,2.62,1.2,4.44-.35-.5-.52-.72-.67-.95-.64-.97-1.09-2.16-1.94-2.88-1.65-1.4-3.42-2.74-5.33-3.75-4.06-2.14-8.45-3.41-12.99-4.14-.49-.08-1.17,.14-1.41-.59h-5.19c-.31,.14-.61,.39-.92,.41-5.29,.24-9.45,3.12-13.66,5.86-1.78,1.16-3.47,2.46-5.13,3.79-.57,.46-.98,1.16-1.34,1.81-.77,1.37-1.47,2.78-2.2,4.18-1.81,3.51-3.08,7.13-2.96,11.18,.11,3.6,.29,7.19,.78,10.77,.71,5.22,1.33,10.45,2,15.68,0,.05,0,.11,.01,.15,.96,1.84,.11,3.58-.37,5.29-.78,2.79-1.7,5.55-3.85,7.67-.45,.45-.87,.93-1.35,1.44,.58,.58,1.1,.47,1.59,.15,.76-.5,1.5-1.03,2.24-1.57,.4-.29,.76-.62,1.31-1.07,0,.48,.09,.77-.01,.94-.83,1.45-1.61,2.94-2.56,4.31-.94,1.37-2.25,2.02-3.96,1.34-.12-.05-.29,.03-.43,.05,.15,.79,.18,.74,2.68,2.27,1.19,.73,2.36,.87,3.63,.56,1.22-.3,2.42-.67,3.77-1.05-.06,.32-.05,.61-.18,.83-.85,1.42-1.86,2.56-3.64,2.96-1.57,.35-3.06,1.06-4.59,1.58-.84,.29-1.57,.21-2.45-.22-1.2-.6-2.6-.81-3.91-1.19-.05-.01-.1,0-.15-.02-3.82-1.25-7.4-.26-10.92,1.21-2.2,.92-4.36,1.94-6.58,2.81-1.71,.67-3.18,1.66-4.23,3.12-2.03,2.84-3.91,5.8-5.93,8.66-2.01,2.86-2.71,6.18-3.63,9.46-.58,2.09-.25,4.14-.11,6.19,.15,2.12,.6,4.21,.95,6.31,.07,.45,.27,.87,.41,1.31,.1,.34,.36,.74,.27,1.02-.62,1.89,.8,3.27,1.23,4.89,.12,.48,.94,.85,1.51,1.12,1.34,.63,1.36,.59,.85,2-.45,1.23-.98,2.4-1.65,3.56-.74,1.28-1.08,2.84-1.41,4.31-.76,3.46-1.42,6.95-2.1,10.43-.36,1.84-.99,3.69-.97,5.53,.05,3.74-1.41,7.14-2,10.73-.18,1.1-.3,2.21-.45,3.31-.05,.34-.1,.69-.17,1.15-1.38-.26-1.87,.64-2.28,1.66-1.38,3.49-2.82,6.96-4.13,10.47-.33,.88-.27,1.9-.38,2.85-.38,3.38-.9,6.78-.11,10.14,.42,1.79,.47,3.52,.47,5.35,0,2.66,.51,5.34,.91,7.99,.45,2.95,1,5.89,1.56,8.83,.14,.75-.28,1.14-.7,1.57-2.18,2.28-4.38,4.54-6.54,6.82-5.87,6.2-11.73,12.41-17.6,18.61-4.92,5.2-9.87,10.39-14.77,15.61-.79,.84-1.43,1.82-2.19,2.69-.23,.26-.64,.45-1,.51-.39,.07-.82-.12-1.21-.06-.36,.06-.78,.22-1.02,.48-1.43,1.57-2.81,3.2-4.24,4.78-.46,.51-.95,.91-.42,1.69,.15,.21,.11,.78-.07,.96-1.34,1.36-1.46,3.2-1.95,4.88-.15,.53-.34,1.06-.4,1.61-.1,1.03,.08,1.23,1.03,1.55,2.16,.73,4.34,1.42,6.47,2.23,.88,.33,1.54,.28,2.19-.4,.35-.37,.73-.76,1.18-.95,.35-.15,.82-.02,1.24,0-.02,.36,.05,.78-.09,1.08-.23,.49-.6,.91-1.04,1.53,.49,.25,.84,.5,1.24,.63,3.29,1.05,6.58,2.07,9.87,3.11,.91,.29,1.54,.16,2.27-.61,3.91-4.13,7.92-8.18,11.88-12.27,6.33-6.53,12.65-13.08,18.98-19.62Zm36.14-70.86c-.75,.7-1,.56-1.94-.66,.65-.67,1.3-1.36,1.94-2.05v2.7Zm-7.33-19.93c.8-2.46,1.6-4.91,2.42-7.36,1.03-3.12,2.09-6.24,3.09-9.38,.14-.44,.07-.97,0-1.45-.13-.95-.35-1.89-.45-2.84-.04-.33,.17-.69,.37-1.41,.45,.71,.71,1.06,.91,1.44,.33,.66,.66,1.33,.99,2v14.02c-.68-.18-1.17,0-1.7,.6-1.54,1.75-3.18,3.42-4.79,5.11-.25,.26-.58,.46-.87,.68-.17-.58-.11-1.01,.03-1.42Z"/><path class="d" d="M616.5,309.46c.19-5.99,.24-11.98,.27-17.98,.02-2.58,.13-5.15,.61-7.69,.29-1.52,.89-2.99,.67-4.59-.11-.77-.18-1.55-.22-2.33-.31-5.33-1.42-10.52-2.7-15.68-.15-.61-.55-1.2-.96-1.7-.59-.73-1.34-1.33-1.95-2.04-2.01-2.31-2.49-5.2-2.89-8.07-.19-1.35-.65-2.32-1.89-2.92-1.28-.62-1.85-2.26-1.37-4.13,.88,.8,1.73,1.49,2.48,2.28,.38,.4,.71,.62,1.29,.57,3.06-.28,6.14-.47,9.2-.8,3.33-.36,6.66-.8,9.97-1.31,1.39-.21,2.97-.29,3.48-2.25,1.92,.83,3.7,1.62,5.49,2.37,2.94,1.24,5.9,2.42,8.82,3.7,.97,.42,1.62,.11,2.23-.55,.26-.28,.37-.7,.63-.98,.4-.43,.8-.97,1.32-1.16,2.15-.8,4.34-1.49,6.52-2.2,.42-.13,.9-.27,1.3-.19,1.31,.27,2.7,.43,3.86,1.03,1.47,.76,2.9,.67,4.39,.48,.72-.09,1.44-.24,2.15-.38,1.44-.28,2.85-.58,3.79-1.9,.44-.61,.99-.72,1.76-.35,1.87,.89,3.81,1.61,5.7,2.47,2.67,1.22,5.65,1.74,8.2,3.74,.36-.78,.69-1.46,.99-2.16,.31-.72,.73-1,1.58-.76,1.59,.45,1.91,.3,2.53-1.28,.76-1.92,1.4-3.89,2.06-5.84,.22-.65,.07-1.2-.62-1.54-1.15-.57-2.26-1.23-3.43-1.78-3.86-1.79-7.73-3.55-11.59-5.33-.39-.18-.92-.41-1.05-.74-.65-1.71-1.15-3.48-1.79-5.19-.24-.65-.56-1.43-1.08-1.78-1.34-.88-2.77-1.67-4.26-2.28-10.46-4.28-20.95-8.5-31.42-12.75-3.84-1.56-7.66-3.16-11.48-4.75-1.22-.51-1.26-.61-1-1.88,.16-.77,.25-1.55,.49-2.3,.37-1.17,.11-2.1-.86-2.82-.53-.39-1.07-.8-1.67-1.06-5.42-2.27-10.82-4.6-16.31-6.69-1.95-.74-3.04-1.76-3.29-3.82-.1-.8-.15-1.49,.18-2.27,2.16-4.96,1.85-9.92-.26-14.81-.6-1.39-1.36-2.7-2.01-4.07-.18-.38-.36-.88-.25-1.25,.58-1.97,.42-3.99,.5-6,.05-1.32-.13-2.64,.36-3.98,1.49-4.1,1.58-8.33,.6-12.55-.48-2.09-1.29-4-3.23-5.31-1.09-.74-1.96-1.82-2.9-2.78-1.06-1.08-2-2.28-3.13-3.28-.73-.64-1.65-1.19-2.58-1.46-1.66-.48-3.38-.77-5.09-1.06-.89-.15-1.46-.37-1.81-1.38-.67-1.89-1.96-3.24-4.18-3.33-.44-.02-.88-.18-1.32-.2-2.4-.13-4.81-.91-7.2,.07-.36-2.29-.32-2.24,1.56-3.48,1.73-1.15,3.4-2.39,3.9-4.63,.07-.34,.42-.61,.68-.98,1.33,.8,2.04-.02,2.93-.81,1.67-1.47,2.19-2.95,1.13-5.09-.84-1.7,.07-4.12,1.42-5.43,1.77-1.72,3.46-3.54,3.71-6.2,.27-2.9,.62-5.79,.79-8.69,.11-1.89,.13-3.87-1.45-5.31-2.15-1.97-2.49-4.44-2.3-7.18,.19-2.75-.46-5.32-2.09-7.62-.44-.62-.62-1.42-.91-2.14-.12-.3-.17-.66-.35-.91-1.52-2.15-3.03-4.3-4.61-6.4-.5-.66-1.11-1.29-1.8-1.74-1.25-.82-2.55-1.62-3.92-2.21-3.81-1.65-7.87-2.33-11.97-2.14-3.9,.18-7.78,.87-11.68,1.31-.87,.1-1.55,.47-2.27,.95-.88,.59-1.68,1.48-3.11,1.43v-1.7c0-2.36,0-4.71,0-7.07,0-.45,.04-.93-.13-1.32-.12-.28-.54-.55-.85-.59-.19-.03-.56,.35-.64,.61-.14,.47-.14,.99-.17,1.5-.12,2.07-.24,4.13-.34,6.2-.03,.61-.19,1.35-.82,1.22-1.2-.24-2.4,.31-3.61-.29-1.27-.63-2.64-.39-3.87,.33-2.12,1.24-3.34,3.26-3.2,5.55,.15,2.44,1.01,4.85,3.45,6.19,.05,.03,.1,.06,.15,.08,1.35,.67,1.43,.71,.76,2.09-1.17,2.42-1.74,4.9-1.53,7.61,.1,1.32-.18,2.58-.75,3.72,.6,.36,1.12,.75,1.55,1.1,.57,.47,1.13,.95,1.69,1.43,1.31,1.12,2.54,2.17,3.86,3.07,1.98,1.35,2.83,3.21,2.54,5.54-.01,.11-.04,.23-.06,.35l2.5,2.02c.07,.05,.15,.11,.22,.17,2.7,1.83,3,4.29,2.78,6.03-.04,.31-.03,.72-.01,1.16,.01,.45,.03,.9,0,1.35,0,.12,0,.2,0,.25,2.54,1.59,2.13,4.11,2,4.95-1.01,6.37-2.55,12.61-4.57,18.53-.24,.69-.43,1.49-.57,2.37-.35,2.2-.67,4.4-1,6.61l-.43,2.91c-.18,1.15-.33,2.05-.09,2.89,.35,1.27,.09,2.46-.11,3.41l-.08,.38c-.13,.63-.29,1.26-.46,1.88-.18,.66-.35,1.28-.44,1.87-.22,1.34-.42,2.68-.61,4.02-.58,3.93-1.18,7.99-2.29,11.97-.85,3.06-1.69,5.84-2.56,8.52-.41,1.26-1.25,2.39-2.25,3.04-.4,.26-.81,.52-1.21,.79-2.88,1.9-5.85,3.86-9.74,4.41-.55,.08-.82,.24-1.11,.66-.76,1.09-1.62,2.03-2.46,2.94-.41,.44-.81,.88-1.2,1.34-.36,.43-.71,.88-1.05,1.32-.75,.97-1.53,1.98-2.51,2.89-.62,.57-1.27,.93-1.85,1.25-.86,.48-.96,.58-.98,.73l-.24,1.51-1.1,.39c-.27,.24-.53,.47-.72,.69-.12,.13-.23,.26-.34,.39-.55,.65-1.28,1.5-2.41,2.08-.13,.81-.23,1.66-.34,2.54,.12,.04,.25,.08,.37,.12,2.84,.84,3.98,2.39,3.96,5.35v.24c1.7,1.19,2.63,2.96,2.69,5.14,0,0,.08,.2,.14,.35,.06,.17,.12,.34,.18,.5l.63,1.93c1.53,4.67,3.11,9.5,3.53,14.76,.18,2.28,.89,4.59,1.64,7.04,.07,.24,.15,.49,.22,.74,.28,.9,.55,1.82,.79,2.75l.11,.41c.39,1.51,.79,3.03,1.17,4.54,.18,.71,.1,1.48-.22,2.11-.15,.29-.28,.6-.42,.91-.41,.95-.88,2.02-1.75,2.95-2.62,2.79-5.38,5.5-8.05,8.11l-.9,.88c-.77,.76-1.67,1.6-2.72,2.26,.38,3.72-.17,7.2-.84,10.44-.45,2.19-.82,4.15-.77,6.01,.09,3.59,.61,7.11,1.16,10.84,.28,1.91,.57,3.89,.8,5.86,.03,.24,.07,.33,.07,.35,0,0,.09,.07,.42,.21,2.2,.91,4.4,1.88,6.52,2.83l.73,.32c2.38,1.04,2.68,2.72,2.51,3.96-.09,.67-.17,1.34-.26,2.01-.17,1.34-.34,2.72-.57,4.1-.42,2.53-.81,4.84-1.18,7h99.9c.02-.23,.04-.46,.05-.69Zm15.93-77.34c.49-1.31,.94-1.5,2.3-.93,3.86,1.61,7.71,3.24,11.57,4.86,.69,.29,1.37,.62,2.34,1.05-.65,.33-.96,.54-1.3,.66-.79,.27-1.66,.38-2.39,.76-1.58,.81-3.08,.69-4.62-.06-1.35-.66-2.73-1.27-4.11-1.85-.87-.36-1.78-.59-2.66-.92-.7-.27-1.38-.6-2.06-.91,.36-1.04,.63-1.86,.94-2.67Zm-10.76-38.56c1.19,.5,2.28,.9,3.31,1.44,.28,.15,.57,.76,.49,1.05-.23,.78-.66,1.5-1.1,2.42-1.49-.71-2.73-1.29-4.09-1.93,.51-1.08,.92-1.98,1.39-2.98Z"/><path class="d" d="M345.97,247.81l-.37,1.07c.25-.03,.52-.12,.8-.27,.29-.24,.46-.84,.34-1.17l-.77,.38Z"/><path class="d" d="M512.8,302.33c.21-1.28,.37-2.55,.54-3.9,.04-.34,.08-.68,.13-1.02l-.18-.08c-2.09-.93-4.26-1.89-6.4-2.77-2.14-.88-3.3-2.39-3.56-4.61-.22-1.89-.5-3.83-.78-5.7-.54-3.71-1.11-7.55-1.21-11.44-.06-2.38,.36-4.64,.87-7.14,.61-2.99,1.12-6.18,.72-9.32-.25-1.89,.47-3.31,2.15-4.22,.71-.39,1.42-1.06,2.09-1.72l.9-.88c2.63-2.58,5.36-5.25,7.91-7.97,.27-.29,.54-.92,.81-1.52,.07-.15,.13-.31,.2-.46-.33-1.28-.66-2.56-1-3.84l-.11-.41c-.28-1.08-.61-2.15-.96-3.28-.03-.08-.05-.17-.08-.25-.18-.6-.37-1.2-.54-1.81-.08-.27-.15-.55-.22-.82-.1-.38-.21-.76-.31-1.15-.1-.39-.17-.78-.25-1.18-.06-.28-.13-.56-.18-.84-.12-.68-.21-1.37-.27-2.07-.37-4.67-1.79-9.01-3.29-13.6l-.64-1.95c-.03-.1-.07-.21-.11-.31-.18-.48-.42-1.15-.44-1.94-.02-.67-.2-.98-.74-1.29-2.02-1.17-1.98-3.2-1.96-4.06v-.21c0-.17,0-.3,0-.4-.09-.03-.21-.07-.37-.12-.67-.2-1.31-.44-1.87-.66-.22-.09-.44-.17-.65-.25l-1.87-.68,.25-1.98c.07-.52,.13-1.02,.18-1.51,.16-1.31,.31-2.56,.53-3.81,.23-1.31,1.28-2.57,2.49-2.99,.25-.09,.52-.4,.95-.89,.14-.17,.29-.33,.43-.5,.38-.42,.77-.77,1.11-1.07h0c.69-1.87,2.24-2.72,3.22-3.26,.35-.19,.71-.4,.89-.56,.67-.62,1.29-1.42,1.94-2.26,.39-.51,.79-1.02,1.2-1.51,.43-.5,.88-.99,1.32-1.48,.76-.83,1.47-1.61,2.04-2.42,1.08-1.55,2.6-2.47,4.51-2.74,2.77-.39,5.16-1.97,7.68-3.63,.42-.27,.83-.55,1.25-.82,.03-.03,.15-.22,.21-.38,.85-2.6,1.67-5.32,2.5-8.31,1.03-3.68,1.58-7.41,2.16-11.36,.2-1.37,.4-2.73,.63-4.1,.14-.84,.35-1.62,.55-2.37,.14-.51,.28-1.03,.39-1.55l.1-.46c.08-.35,.19-.88,.17-1.07-.51-1.84-.25-3.5-.02-4.97l.42-2.85c.33-2.23,.65-4.45,1.01-6.67,.19-1.18,.44-2.23,.78-3.2,1.93-5.65,3.4-11.6,4.36-17.69,0-.04,.01-.07,.02-.1-.96-.67-2.21-2.03-2.08-4.57,.02-.31,0-.62,0-.93-.02-.58-.04-1.25,.05-1.96,.06-.48,.05-.8-.66-1.28-.1-.07-.21-.15-.31-.23l-.15-.11-3.53-2.86-.24-.53c-.03-.07-.07-.14-.11-.21-.19-.35-.47-.88-.59-1.56-.13-.74,.03-1.35,.13-1.71l.03-.12c.05-.39,.05-.42-.41-.73-1.54-1.05-2.94-2.25-4.29-3.4-.54-.46-1.07-.92-1.62-1.37-.21-.18-.41-.32-.61-.45-.83-.57-1.56-.83-2.38-.84-1.45-.02-2.68-.76-3.8-1.55-1.51-1.07-3-2.17-4.5-3.27-2.28-1.67-4.63-3.41-6.99-5-3.07-2.07-6.27-4.09-9.37-6.05-1.5-.95-3.01-1.9-4.51-2.86-.72-.46-1.43-.93-2.14-1.4-.64-.42-1.28-.85-1.92-1.26-1.77-1.14-2.36-2.89-1.62-4.8,.73-1.9,.85-3.17,.4-4.37-.34-.92-.23-1.78-.16-2.35l.02-.2c.11-1.07,.24-2.15,.37-3.22,.23-1.97,.47-4,.62-5.98,.22-2.9,.38-5.87,.54-8.74,.06-1.21,.13-2.43,.2-3.64,0-.23,0-.63,.18-1.07,.18-.48,.11-.75-1.04-2.21l-.11-.14c-2.06-2.61-4.1-5.31-6.06-7.91l-.32-.42c-.52-.69-.79-.87-1.07-.93-.76-.17-1.25-.59-1.51-.82-.03-.03-.07-.06-.12-.1l-2.52-1.88,1.05-.89c-1.54-.78-3-1.42-4.61-1.93l-3.54-1.13,1.77-2.13c-3.62-1.27-7.21-1.5-10.91-.7-.98,.21-1.96,.35-2.9,.49-.42,.06-.84,.12-1.26,.19l-3.03,.48,.15-3.25c-1.18,.97-2.39,1.95-3.62,2.89-1.27,.97-2.59,1.88-3.87,2.75-1.06,.73-2.17,1.49-3.2,2.25-.42,.31-.85,.8-1.3,1.33-.2,.23-.39,.45-.59,.67-.22,.24-.41,.5-.64,.79-.14,.18-.29,.38-.45,.58l-2.06,2.58-1.03-1.43c-3.3,4.01-5.66,7.77-6.59,12.28-.13,.65,.02,1.62,.17,2.56,.04,.28,.09,.56,.13,.84,.27,1.91,.55,3.82,.84,5.73,.4,2.66,.81,5.42,1.17,8.14,.15,1.15-.02,2.43-.53,3.91l-.04,.1c-.57,1.68-.95,2.79-.89,3.3,.06,.53,.69,1.56,1.65,3.12,.24,.39,.49,.78,.77,1.21l1.69,2.62-2.27,1.77c-.34,.27-.66,.52-.99,.77-.93,.69-1.88,1.37-2.82,2.05-1.97,1.42-4,2.88-5.87,4.42-3.09,2.54-5.93,5.87-8.93,10.47-1.17,1.8-1.8,3.83-1.96,6.39-.08,1.22-.19,2.43-.31,3.65-.12,1.33-.25,2.7-.33,4.03-.05,.87,.04,1.82,.14,2.82l.06,.58c.05,.51,.09,1.02,.13,1.53,.14,1.7,.28,3.3,.55,4.87,.56,3.24,.14,6.46-1.23,9.76-.1,.24-.21,.49-.32,.73-.17,.37-.34,.75-.54,1.13-.54,1.05-1.48,1.69-1.99,1.98-1.17,.67-1.65,1.49-1.6,2.76,.08,2.31-1.04,3.84-1.89,4.78-3.3,3.67-5.8,7.83-8.5,12.49-.35,.6-.46,1.24-.32,1.85,.45,1.98,.12,3.92-.98,5.78-1.89,3.21-3.55,5.81-5.21,8.2-.89,1.28-2.35,2.37-3.81,2.84-1.67,.54-2.62,1.46-3.37,3.29-.4,.97-.86,1.9-1.34,2.81-.51,.96-1.04,1.89-1.57,2.8-.46,.79-.91,1.58-1.35,2.38-1.27,2.35-3.24,2.42-4.3,2.26-.12-.02-.26-.04-.65,.56-.5,.77-1.4,2.16-3.36,2.48-.03,.11-.08,.26-.12,.47-1.12,4.79-2.75,9.43-4.32,13.93-.89,2.55-1.82,5.19-2.62,7.8-.14,.45-.31,.84-.46,1.19l-1.18,2.84c-1.03,2.5-2.06,5-3.1,7.49-.21,.51-.46,.97-.7,1.41-.1,.19-.21,.39-.33,.61l-1.15,2.23-3.66-1.91c-1.04-.54-2.04-1.06-3.02-1.59l-1.09-.59c-1.34-.72-2.74-1.46-4.08-2.33-1.37-.88-3-1.37-4.73-1.85l-.38,.12c-.97,.32-1.9,.62-2.78,.99-.03,.05-.07,.12-.13,.22-.77,1.41-1.51,2.83-2.26,4.25-.48,.91-.96,1.82-1.44,2.73-.11,.21-.2,.56,.06,1.46,.64,2.22-.12,3.86-.94,5.18-3.4,5.42-6.72,10.92-10.11,16.54l-.59,.98c-1.04,1.73-2.1,3.49-3.15,5.25l-.02,.03h0c-1.54,2.58-3.08,5.18-4.55,7.78-1.56,2.74-3.8,4.56-5.99,6.11-.5,.36-1.35,.96-1.69,1.48-1.56,2.41-3.08,4.92-4.55,7.35-.51,.85-1.02,1.69-1.54,2.54-.03,.05-.05,.1-.08,.16-.12,.26-.31,.65-.62,1.04-.48,.6-.9,1.45-.43,3.25,.59,2.22-.23,3.91-.89,5.17,.09,.16,.16,.33,.22,.52,0,.02,.01,.03,.02,.05,.06,.19,.1,.4,.12,.62,0,.1,.02,.21,.01,.32,.17,.12,.5,.3,.73,.43l.14,.07c2.25,1.23,4.52,2.44,6.78,3.65l3.95,2.12c.53,.28,1.12,.6,1.7,1.02,.1,.07,.18,.13,.25,.17,.03-.04,.06-.08,.1-.12,1.47-1.88,2.49-2.25,4.72-1.72l.26,.06c1.53,.36,3.13,.66,4.68,.96,.79,.15,1.58,.3,2.37,.46,.03-.02,.07-.04,.12-.07,1.19-.74,2.39-1.46,3.59-2.17,1.45-.86,2.94-1.75,4.37-2.67,.51-.32,1.03-.95,1.52-1.58,1.1-1.41,1.93-2.6,2.62-3.74,2.72-4.51,5.45-9.12,8.09-13.59l.52-.89c1.5-2.54,2.75-3.02,5.61-2.15,.59,.18,.66,.16,1.1-.26,3.02-2.88,3.94-3.02,7.73-2.48l.4,.06c3.26,.46,6.8,.89,11.14,1.36,.39-.27,.75-.67,1.13-1.1l.31-.35c2.58-2.84,4.97-5.84,6.98-8.4,.88-1.13,2.04-2.18,3.34-3.05,1.09-.72,2.21-1.35,3.29-1.96,.69-.39,1.39-.78,2.06-1.19,1.47-.9,3.08-.86,4.39,.08,.96-.55,1.92-1.03,2.94-1.54,.44-.22,.89-.45,1.36-.69l3.64-1.87v4.09c0,.15,0,.29,.02,.4,.02,.41,.06,.98-.15,1.62-.82,2.48-2.21,5.54-5.78,7.31-.54,.27-1.09,.6-1.67,.94-1.45,.86-3.08,1.84-5.14,2.19-.72,.12-1.39,.17-2.05,.21h-.16c-.06,.02-.11,.02-.15,.03-.34,1.2-.68,2.31-1.02,3.41-.67,2.19-1.31,4.26-1.7,6.37-1.62,8.71-3.55,18.04-6.62,27.18-.1,.31-.14,.79-.18,1.3-.03,.43-.07,.86-.13,1.28-.08,.49-.17,.97-.27,1.5,.03,.02,.06,.04,.09,.06,1.17,.75,2.34,1.52,3.5,2.3,3.76,2.5,7.3,4.85,11.25,6.56,1.03,.44,2.7,1.6,2.33,4.34-.32,2.36-.61,4.73-.89,7.09-.03,.26-.07,.52-.1,.79h114.98c.42-2.39,.85-4.96,1.33-7.82Zm-169.37-50.22l-1.19-2.5c-.78-1.63-.75-3.89,1.66-5.33,1.31-.78,2.57-.18,3.11,.08,.06,.03,.11,.06,.17,.08l1.55,.54,.25,3.75-5.55,3.38Zm80.91-68.46c-.07,.59-.14,1.18-.19,1.77-.19,2.19-1.41,3.38-2.41,3.99-.55,.34-1.09,.68-1.64,1.03-.57,.36-1.14,.72-1.71,1.08-.84,.51-1.68,1.02-2.53,1.53-1.3,.78-2.61,1.57-3.89,2.38-1.49,.93-1.81,1.7-1.84,2.57-.11,3.13-2.07,4.85-3.53,5.87-1.26,.88-2.47,1.84-3.74,2.86-1.31,1.05-2.66,2.14-4.1,3.13-.54,.38-1.09,.74-1.64,1.11-1.35,.9-2.72,1.78-4.1,2.62-.07,.04-.14,.08-.2,.12-1.34,.82-2.69,1.61-4.06,2.37-.12,.07-.24,.13-.35,.19-1.34,.74-2.7,1.46-4.06,2.15-.12,.06-.24,.12-.36,.18-1.39,.7-2.79,1.37-4.2,2.01-.32,.14-.63,.3-1.01,.49l-3.97,1.97-.94-8.73,2.72-.06c.35,0,.56-.05,1.21-.85,.58-.71,1.19-1.35,1.77-1.97,.29-.31,.58-.61,.87-.93,.05-.05,.08-.09,.11-.12-.08-1.47,.82-2.69,1.37-3.3,.85-.93,1.74-1.82,2.59-2.69,.45-.45,.9-.91,1.34-1.36l1.14-1.17c1.53-1.58,3.06-3.16,4.56-4.76,1.35-1.44,3.02-3.23,5.53-4.09,.09-.1,.23-.26,.32-.37l.07-.08c1.92-2.32,4.34-5.45,6.05-9.03,.05-.1,.07-.17,.09-.21-.15-2.39,1.33-3.82,1.89-4.37,2.01-1.95,3.78-3.74,4.97-5.88,.26-.46,.56-.82,.82-1.13,.41-.48,.83-.96,1.23-1.44h0c.35-.41,.69-.81,1.02-1.19l2.35-2.73,2.54,2.4c.59,.54,1.25,1.16,1.88,1.83,.57,.61,.85,1.28,1.06,1.78l.08,.19c.91,2.1,1.82,4.2,2.7,6.31,.23,.55,.49,1.41,.41,2.36-.06,.72-.14,1.45-.22,2.17Z"/></g><g><path class="d" d="M569.68,340.48c1.34,16.97,2.69,33.98,4.03,51.01,9.78,.31,19.56,.67,29.34,1.06-1.69-17.32-3.37-34.59-5.05-51.81-9.44-.1-18.88-.19-28.32-.26Z"/><path class="d" d="M375.61,366.95c8.58-.13,17.15-.24,25.73-.33,.37-8.83,.73-17.65,1.09-26.47-8.41,.04-16.83,.08-25.24,.13-.53,8.89-1.05,17.78-1.58,26.68Z"/><path class="d" d="M806.17,344.59c1.87,9.53,3.75,19.13,5.62,28.78,12.75,.76,25.49,1.56,38.23,2.41-2.06-10.13-4.12-20.18-6.18-30.16-12.55-.36-25.11-.71-37.66-1.03Z"/><path class="d" d="M883.47,302.11H34.54L0,468.1l28.93-4.94c1.96-.33,198.33-33.43,430.08-33.43s428.12,33.1,430.08,33.43l28.92,4.94-34.54-165.98ZM87.67,434.32c-1.6-17.28-3.2-34.65-4.8-52.14-4.23,.31-8.45,.62-12.68,.94-3.66,18.15-7.31,36.54-10.95,55.19-11.24,1.64-22.47,3.35-33.69,5.12,8.36-41.77,16.78-82.17,25.25-121.33h31.9c-2.5,11.99-5,24.09-7.5,36.31,4.28-.19,8.56-.38,12.84-.56,6.97-12.21,13.95-24.12,20.94-35.74h36.46c-7.79,11.16-15.57,22.6-23.35,34.35-3.87,5.72-7.99,8.75-13.23,10.37,4.79,.7,8.94,2.43,9.85,8.12,2.95,18.28,5.9,36.36,8.84,54.27-13.3,1.6-26.6,3.3-39.88,5.1Zm145.93-15.81c-11.62,.95-23.24,1.97-34.85,3.07-7.22-15.5-14.44-31.3-21.66-47.46,7.83-.41,15.67-.8,23.5-1.18,1.63-10.22,3.27-20.39,4.9-30.52-8.87,.17-17.74,.34-26.61,.53-4.66,26.97-9.32,54.3-13.98,82.03-11.28,1.2-22.55,2.48-33.82,3.82,6.49-36.32,12.99-71.86,19.51-106.69h71.55c10.78,.02,17.69,5.8,16.5,13.94-1.62,11.11-3.24,22.27-4.86,33.47-1.04,7.18-8.59,12.82-17.9,13.34-.47,.03-.95,.05-1.42,.08,6.37,12.05,12.75,23.9,19.13,35.57Zm78.37-5.28c-25.05,1.33-50.09,3-75.11,5.01,4.2-7.57,8.39-15.05,12.58-22.45,16.83-.99,33.67-1.86,50.51-2.61,.29-2.69,.57-5.38,.86-8.07-13.85,.54-27.69,1.16-41.53,1.85-9.35,.48-15.43-4.44-14.44-11.64,2.47-17.84,4.94-35.58,7.4-53.21h31.9c-1.76,14.51-3.53,29.07-5.29,43.68,8.03-.25,16.06-.48,24.09-.69,1.53-14.37,3.06-28.7,4.59-42.99h31.9c-2.16,25.13-4.33,50.33-6.51,75.61-.72,8.4-9.49,14.88-20.97,15.51Zm122.09-43.02c-.14,7.86-8.34,13.6-19.63,13.73-13.29,.15-26.58,.37-39.87,.66-.51,8.68-1.03,17.37-1.55,26.07-11.32,.35-22.64,.77-33.96,1.26,2.44-30.04,4.88-59.97,7.31-89.82h70.03c10.78,0,18.44,5.27,18.3,12.67-.21,11.81-.42,23.62-.64,35.43Zm71.61,39.51c-11.32-.19-22.65-.31-33.97-.36-.21-23.11-.41-46.22-.62-69.33-11.13-.01-22.27,0-33.4,.01,3.13-5.98,6.27-11.96,9.39-17.93h84.15c.32,6.04,.64,12.07,.96,18.11-9.59-.05-19.19-.09-28.78-.13,.75,23.2,1.51,46.41,2.27,69.63Zm113.62,4.25c-19.39-1.12-38.79-2.04-58.2-2.76-11.48-.43-20.07-6.65-20.54-14.89-1.17-20.49-2.33-40.95-3.49-61.39-.42-7.48,7.02-12.81,17.8-12.82h54.68c10.79-.01,19.19,5.56,20.12,13.43,2.52,21.43,5.05,42.96,7.58,64.6,1.02,8.73-6.48,14.52-17.96,13.83Zm92.93,6.95c-12.25-17.2-24.5-33.77-36.75-49.83,7.84,.31,15.68,.65,23.51,1-1.52-10.04-3.04-20.04-4.56-30-8.87-.16-17.74-.3-26.62-.44,3.51,25.25,7.02,50.7,10.53,76.38-11.3-.9-22.6-1.73-33.91-2.48-3.75-31.38-7.5-62.52-11.24-93.43h71.54c10.79-.02,19.55,6,20.98,14.53,1.95,11.59,3.89,23.25,5.84,34.98,1.25,7.55-4.61,12.68-13.92,12.12-.47-.03-.95-.06-1.42-.08,10.28,13.14,20.56,26.68,30.83,40.69-11.6-1.21-23.21-2.35-34.82-3.42Zm38.41,3.79c-5.81-34.8-11.63-68.99-17.45-102.61h31.9c6.47,34.74,12.93,70.19,19.37,106.4-11.27-1.33-22.54-2.6-33.82-3.79Zm111.97,14.16c-2.68-13.68-5.36-27.21-8.05-40.61-12.87-1.22-25.75-2.39-38.63-3.49,2.45,12.76,4.89,25.61,7.33,38.59-9.97-1.32-19.95-2.59-29.93-3.8-6.61-36.61-13.23-72.4-19.87-107.46h93.75c5.46,25.24,10.89,51.01,16.31,77.32h0c.08,.39,.16,.79,.24,1.19,.04,.18,.07,.35,.11,.53h0c2.87,13.94,5.73,28.04,8.58,42.29-9.94-1.57-19.89-3.1-29.85-4.56Z"/></g></g></g></g></svg>