<?xml version="1.0" encoding="UTF-8"?><svg xmlns="http://www.w3.org/2000/svg" viewBox="0 0 808.48 344.42"><defs><style>.d{fill:#fff;}</style></defs><g id="a"/><g id="b"><g id="c"><g><path class="d" d="M74.81,5.9l.98,16.41-2.01,18.45,.67,18.45-.4,18.45,.74,18.45,4.02,18.45-2.76,18.45-.55,18.45,.6,18.45-2.18,18.45,2.8,18.45,2.44,18.45-2.23,18.45-3.26,18.45,4.39,18.46-1.48,18.93-27.66,1.45,2.06-19.82-1.47-17.9,2.74-17.9-1.83-18.1-18.28,1.83-.13,16.27,1.02,17.9-3.75,17.9,.49,16.62-26.83,3.7,3.44-20.86-4.72-18.45,3.53-18.45,1.59-18.45-1.1-18.45-2.99-18.45,2.37-18.45,1.23-18.45-1.33-18.45-1.17-18.45,2.44-18.45-1.94-18.45,2.6-18.45-1.85-18.45L1.73,22.31,5.22,4.66,31.73,2.31l-1.92,19.51-.16,17.96,.98,17.96-2.22,17.96,1.37,17.96-.22,17.96-1.56,17.96,4.79,17.96-.82,17.97-2.72,17.97,1.6,17.75,20.25,1.16-1.24-18.89,1.01-17.96-1.86-17.96-.62-17.96,1.66-17.96,.55-17.96,2.23-17.96-1.81-17.96-2.04-17.97,3.77-17.97-3.06-18.84,25.13,2.92Zm10.71,257.36l2.18-17.45-2.8-17.46-2.44-17.46,2.23-17.46,3.26-17.46-4.39-17.46,1.24-17.46-1.76-17.46,3.08-17.46-1.47-17.46,2.74-17.46-1.74-17.47-2.48-17.47,3.56-14.27,7.43-12.74,13.79-4.91,13.23-2.32,14.88-1.68,9.23,11.81,11.84,9.22-.69,14.89-1.59,16.21,1.1,16.21,2.99,16.21-2.26,15.93-14.89-1.36-15.2,1.33-14.56,.87-2.24,17.47,1.94,18.01-2.6,18.01,1.85,18.01,3.32,18.01-3.91,18.02,2.87,18.02-2.73,18.02-.16,18.02,4.03,6.95,7.11,5.1,17.08-1.37,17.08,.22,17.08,1.56,17.08-4.79,17.08,.82,17.08,2.72,17.33-1.57-1.31,25.48-16.02,1.08-17.08-1.01-17.08,1.86-17.08,.62-17.08-1.66-17.08-.55-17.08-2.23-13.53-.75-12.87-6.23-4.78-13.43-4.82-12.81Zm47.22-186.03l-1.3-21.36,2.01-19.59-4.07-8.2-8.2-3.8-7.95,4.04,.72,7.95-2.76,19.59-.33,20.12,21.89,1.24ZM175.99,11.05l12.37-5.81,12.87-5.24,14.86,.4,10.95,10.07,4.99,13.05,6.81,12.77-1.24,18.15,1.76,18.15-3.08,18.15,1.47,18.15-2.74,18.15,1.74,18.15,2.48,18.16-.85,18.15,1.02,18.16-3.75,18.16-.19,18.16,3.25,20.58-26.73-3.86-3.95-16.09,3.53-17.52,1.59-17.52-1.1-17.53-2.99-17.52,2.37-17.53,1.23-17.53-1.33-17.53-.88-16.9-20.09-1.82,1.41,18.71-2.6,17.52,1.85,17.52,3.32,17.53-3.91,17.52,2.87,17.53-2.73,17.53-.16,17.53,1,17.5-24.7-1.82-.41-16.3,.22-18.15,1.56-18.15-4.79-18.15,.82-18.15,2.72-18.15-1.7-18.16,1.57-18.15-1.65-18.16,1.01-18.16-1.86-18.16-.62-18.16,4.29-13.83,8.15-11.4Zm34.15,16.59l-8.91-1.62-8.89,1.64-2.7,8.62-.4,17.23,1.24,18.32,18.86-3.02,1.89-15.3,.55-17.23-1.63-8.64Zm81.52,269.37l-23.97,1.67,2.21-17.56-.67-17.95,.4-17.94-.74-17.94-4.02-17.94,2.76-17.95,.55-17.94-.6-17.95,2.18-17.95-2.8-17.95-2.44-17.94,2.23-17.95,3.26-17.95-4.39-17.95,1.46-17.5-24.36,1.09,2.36-27.13,17.29-1.15,17.9,2.74,17.9-1.74,19.72-1.52-.8,28.16-22.52,.97-2.84,16.07-.19,17.95,4.52,17.94-4.68,17.94,4.72,17.94-3.53,17.95-1.59,17.94,1.1,17.95,2.99,17.95-2.37,17.95-1.23,17.94,1.33,17.95,1.17,17.95-2.43,17.89,.16,15.97ZM359.63,27.36l-7.26,5.04-5.01,7.26,.67,25.33,4.95,10.48,11.99,9.75,15.96,8.27,9.59,17.36,4.16,19.67,.6,17.01-2.18,17.01,2.8,17.01,2.44,17.01-2.23,17.02-3.26,17.02,4.39,17.02-1.24,17.02-1.09,14.69-10.65,10.12-10.71,9.02-13.93-.03-13.55-.9-13.17-5.99-7.68-12.6-3.79-14.31,3.75-19.59-.43-18.34,26.84-3.61-3.51,21.95,4.72,19.59-.5,7.31,7.31,4.62,7.66-4.27,.18-7.66,2.37-17.65,1.23-17.65-1.33-17.65-1.17-17.64,2.44-17.65-1.94-17.65,2.6-17.65-1.85-17.65-9.48-9.18-13.13-15.93-17.88-15.76-4.65-24.99,.16-19.93,1.68-13.77,9.52-9.96,10.27-8.61,13.31-2.37,17.27,1.56,17.27-4.79,17.27,.82,17.27,2.72,17.28-1.7,17.28,1.57,17.6-1.48-.84,25.88-16.75,1.59-17.27,.62-17.27-1.66-17.27-.55-17.28-2.23-17.22,1.82-17.33-1.74Zm89.72,269.68l-23.92,1.64,2.2-18.31-.67-18.69,.4-18.69-.74-18.69-4.02-18.69,2.76-18.69,.55-18.69-.6-18.69,2.18-18.69-2.8-18.69-2.44-18.7,2.49-18.16-20.6-2.24-3.43-25.33,19.4,.45,17.9-1.76,17.9,3.08,18.51-1.16-2.11,25.09-21.63,1.12,2.38,18.89-.85,18.69,1.02,18.69-3.75,18.69-.19,18.69,4.52,18.69-4.68,18.69,4.72,18.69-3.53,18.69-1.59,18.69,1.1,18.65-.43,16.72Zm67.42-72.05l9.34,14.09,8.42,13.76,12.6,8.77,12.98,9.4,20.63,2.98,20.72-3.89,18.41,4.68,20.85-3.45-2.88,27.41-18.48-1.82-18.91,1.1-19.93,2.31-19.4-4.92-18.24-6.96-13.83-7.51-11.68-11.03-9.36-14.33,1.92,21.87-1.79,19.89-24.34,1.4-3.15-18.12,3.91-18.45-2.87-18.45,2.73-18.45,.16-18.45-.98-18.45,2.22-18.45-1.37-18.45,.22-18.45,1.56-18.45-4.79-18.45,.82-18.45,2.72-18.45-1.7-18.45,1.57-18.46-1.52-18.75,21.2,.91,19.82,2,17.12,10.91,10.13,17.58,3.24,19.55-2.23,17.42,1.81,17.42,2.04,17.41-3.77,17.42,3.53,17.42,.96,17.42-4.28,17.42-.45,16.26-8.2,14.2-11.7,11.95-15.79,6.14Zm-9.57-195.88l1.92,17.91-2.01,17.15,.67,17.16-.4,17.16,.74,17.16,4.02,17.15-2.76,17.16-.55,17.16,.6,17.16-2.07,17.86,15.72-6.78,3.16-13.51,2.23-18.91,3.26-18.91-4.39-18.91,1.24-18.92-1.76-18.92,3.08-18.92-1.47-18.92-3.59-15.27-17.66-5.07Zm64.57,7.17l-1.88-14.89,11-10.06,12.01-6.27,12.94-3.55,14.5-.23,10.54,9.96,6.63,11.92,3.82,13.12,1.17,18.54-2.44,18.54,1.94,18.54-2.6,18.54,1.85,18.54,3.32,18.54-3.91,18.54,2.87,18.55-2.73,18.55-.16,18.55-1.67,13.64-9.39,9.95-10.29,8.74-13.44,2.37-12.75-4.02-14.1-4.03-7.5-12.5-.04-14.16-1.7-18.54,1.57-18.54-1.65-18.54,1.01-18.54-1.86-18.54-.62-18.54,1.66-18.54,.55-18.55,2.22-18.43-.85-18.67Zm46.37,0l-5.04-7.26-7.26-5.01-8.2,4.07-3.8,8.2,.74,18.54,4.02,18.54-2.76,18.54-.55,18.54,.6,18.54-2.18,18.54,2.8,18.54,2.44,18.55-2.23,18.55-3.26,18.55,6.73,5.64,5.64,3.58,5.27-3.95,5.26-5.27-1.47-18.54,2.74-18.54-1.74-18.54-2.48-18.54,.85-18.54-1.02-18.54,3.75-18.54,.19-18.55-4.51-18.75,5.45-18.35Zm102.06,14.19l-.89,15.42-10.32,11.44-12.98,11.6,18.1,16.8,7.13,20.74,4.02,17.26-2.76,17.26-.55,17.26,.6,17.26-2.18,17.26,2.8,17.26,2.44,17.26-2.23,17.26-3.26,17.26,3.58,18.78-27.34-1.04-2.01-18.28,3.08-17.8-1.47-17.8,2.74-17.8-1.74-17.8-2.48-17.8,.85-17.8-1.02-17.8,3.75-17.81,.19-17.81-9.42-11.96-13.38-8.47,4.64,18.49-3.53,17.99-1.59,17.99,1.1,17.99,2.99,17.99-2.37,17.99-1.23,17.99,1.33,18,1.17,18-2.44,18,1.79,18.29-24.91-2.12-.9-16.62-3.32-18.45,3.91-18.45-2.87-18.45,2.73-18.45,.16-18.45-.98-18.45,2.22-18.45-1.37-18.45,.22-18.45,1.56-18.45-4.79-18.45,.82-18.45,2.72-18.45-1.7-18.46,1.03-17.42,25.49-1.35-.84,18.22,1.86,17.9,.62,17.9-1.67,17.84,13.91-5.61,8.07-14.26-1.81-17.22-2.04-17.23,2.99-15.42,16.47-2.85,18.18-.96,18.18,4.28,18.18-2.09,18.19,.1,19.21-1.01V30.51l-17.63-.27-16.62-.2-16.62-1.09-16.62-.87-15.84,2.5-3.28,19.88Zm82.74,216.17l-4.62,12.87-5.37,12.81-10.81,10.22-14.87,.6-12.77-5.68-13.85-4.19-7.11-12.64-4.41-13.97,3.08-18.54-1.47-18.54,2.74-18.54-1.74-18.54-2.48-18.54,.85-18.54-1.02-18.54,3.75-18.55,.19-18.55-4.52-18.55,7.21-12.98,4.09-14.28,13.89-5.38,13.57-1.03,13.38,1.49,13.35,5.64,6.03,13.05,1.39,13.49,1.33,16.21,1.17,16.21-2.44,16.21,1.85,16.45-15.45-2.49-15.2,1.85-13.01,2.33-3.18,15.29,2.87,17.23-2.73,17.22-.16,17.23,.98,17.23-2.22,17.23,1.37,17.23,2.97,7.7,7.7,4.75,5.42-7.04,3.06-5.42,2.72-19.59-1.58-19.83,25.42,1.25,1.15,18.58-.53,19.59Zm-24.1-144.48l-1.3-21.36,2.01-19.59-4.07-8.2-8.2-3.8-7.95,4.04,.72,7.95-2.76,19.59-.33,20.12,21.89,1.24Z"/><g><path class="d" d="M17.03,320.8v4.7H5.27v4.86H15.84v4.49H5.27v4.9h12.13v4.66H0v-23.61H17.03Z"/><path class="d" d="M81.18,320.8h5.27v23.61h-5.27l-11.25-14.8v14.8h-5.27v-23.61h4.93l11.59,15.2v-15.2Z"/><path class="d" d="M144.83,325.36v19.05h-5.27v-19.05h-6.69v-4.56h18.65v4.56h-6.69Z"/><path class="d" d="M214.96,320.8v4.7h-11.76v4.86h10.57v4.49h-10.57v4.9h12.13v4.66h-17.4v-23.61h17.03Z"/><path class="d" d="M281.75,328.64c0,3.78-1.5,6.23-4.49,7.33l5.98,8.45h-6.49l-5.24-7.53h-3.65v7.53h-5.27v-23.61h8.95c3.67,0,6.29,.62,7.85,1.86s2.35,3.23,2.35,5.98Zm-6.35,2.8c.65-.58,.98-1.51,.98-2.79s-.34-2.14-1.01-2.62c-.68-.47-1.86-.71-3.55-.71h-3.95v6.99h3.85c1.8,0,3.03-.29,3.68-.88Z"/><path class="d" d="M339.24,325.36v19.05h-5.27v-19.05h-6.69v-4.56h18.65v4.56h-6.69Z"/><path class="d" d="M407.45,344.42l-2.2-5.1h-9.9l-2.2,5.1h-5.61l10.2-23.61h5.1l10.2,23.61h-5.61Zm-7.13-16.59l-2.97,6.86h5.91l-2.94-6.86Z"/><path class="d" d="M458.36,320.8h5.27v23.61h-5.27v-23.61Z"/><path class="d" d="M528.53,320.8h5.27v23.61h-5.27l-11.25-14.8v14.8h-5.27v-23.61h4.93l11.59,15.2v-15.2Z"/><path class="d" d="M603.32,329.55l-6.38,12.91h-3.14l-6.35-12.91v14.86h-5.27v-23.61h7.13l6.08,12.97,6.11-12.97h7.09v23.61h-5.27v-14.86Z"/><path class="d" d="M673.99,320.8v4.7h-11.76v4.86h10.57v4.49h-10.57v4.9h12.13v4.66h-17.4v-23.61h17.03Z"/><path class="d" d="M738.15,320.8h5.27v23.61h-5.27l-11.25-14.8v14.8h-5.27v-23.61h4.93l11.59,15.2v-15.2Z"/><path class="d" d="M801.79,325.36v19.05h-5.27v-19.05h-6.69v-4.56h18.65v4.56h-6.69Z"/></g></g></g></g></svg>