<?xml version="1.0" encoding="UTF-8"?><svg xmlns="http://www.w3.org/2000/svg" xmlns:xlink="http://www.w3.org/1999/xlink" viewBox="0 0 893.78 172.81"><defs><style>.e,.f{fill:#8b5cf6;}.g{isolation:isolate;}.f{letter-spacing:-.04em;}.h{letter-spacing:0em;}.i{fill:url(#d);mix-blend-mode:lighten;opacity:.69;}.j{letter-spacing:-.03em;}.k{font-family:BellinzoBoldBold, Bellinzo Bold;font-size:87.16px;}</style><linearGradient id="d" x1="100.91" y1="41.75" x2="1.09" y2="129.75" gradientTransform="matrix(1, 0, 0, 1, 0, 0)" gradientUnits="userSpaceOnUse"><stop offset="0" stop-color="#8b5cf6"/><stop offset="1" stop-color="#fff"/></linearGradient></defs><g class="g"><g id="a"/><g id="b"><g id="c"><g><circle cx="25.31" cy="131.37" r="25.31"/><rect x="22.41" y="76.6" width="50.62" height="63.94" transform="translate(89.77 -2.32) rotate(44.5)"/><path d="M140.15,116.23h39.12c10.72,0,19.42,8.7,19.42,19.42h0c0,10.72-8.7,19.42-19.42,19.42h-39.12v-38.85h0Z"/><path class="e" d="M135.89,155.03c-17.03-1.06-37.96-22.71-78.06-40.8-39.21-17.7-52.64,1.94-53.21,2.81l30.83-59.25L60.73,9.17c6.34-12.19,23.74-12.23,30.14-.09,11.28,21.47,26.97,51.21,40.07,75.76,10.33,19.33,19.06,35.45,22.81,41.8,12.3,20.82-.82,29.45-17.85,28.39Z"/><polygon class="e" points="145.24 111.4 169.42 155.11 140.15 155.08 131.99 127 145.24 111.4"/><path class="i" d="M130.94,84.84c-4.33,.43-8.71,.64-13.14,.64-30.94,0-59.48-10.3-82.35-27.7L60.73,9.17c6.34-12.19,23.74-12.23,30.14-.09,11.28,21.47,26.97,51.21,40.07,75.76Z"/></g></g></g></g></svg>