<?xml version="1.0" encoding="UTF-8"?><svg xmlns="http://www.w3.org/2000/svg" viewBox="0 0 892.11 82.69"><defs><style>.d{fill:#8b5cf6;}</style></defs><g id="a"/><g id="b"><g id="c"><g><path class="d" d="M32.26,.12h19.57l32.14,81.53h-19.57l-.58-1.51-5.71-15.02H25.74l-5.94,15.72-.23,.7H0L32.26,.12Zm20.15,49.73l-10.37-27.37-10.37,27.37h20.73Z"/><path class="d" d="M152.92,0V81.53h-18.05v-7.22c-1.94,2.41-4.31,4.41-7.1,6-2.8,1.59-6.17,2.39-10.13,2.39-5.9,0-10.83-1.51-14.79-4.54-3.96-3.03-6.93-6.83-8.91-11.41-1.98-4.58-2.97-9.51-2.97-14.79s.99-10.21,2.97-14.79c1.98-4.58,4.95-8.39,8.91-11.41,3.96-3.03,8.89-4.54,14.79-4.54,3.96,0,7.34,.8,10.13,2.39,2.8,1.59,5.16,3.59,7.1,6V0h18.05Zm-30.16,67.67c2.25,0,4.15-.45,5.71-1.34,1.55-.89,2.8-2.08,3.73-3.55,.93-1.47,1.61-3.14,2.04-5.01,.43-1.86,.64-3.77,.64-5.71s-.21-3.84-.64-5.71c-.43-1.86-1.11-3.53-2.04-5.01-.93-1.47-2.17-2.66-3.73-3.55-1.55-.89-3.46-1.34-5.71-1.34-3.03,0-5.53,.78-7.51,2.33-1.98,1.55-3.48,3.48-4.48,5.76-1.01,2.29-1.51,4.78-1.51,7.45s.5,5.16,1.51,7.45c1.01,2.29,2.5,4.21,4.48,5.77,1.98,1.55,4.48,2.33,7.51,2.33v.12Z"/><path class="d" d="M226.41,0V81.53h-18.05v-7.22c-1.94,2.41-4.31,4.41-7.1,6-2.8,1.59-6.17,2.39-10.13,2.39-5.9,0-10.83-1.51-14.79-4.54-3.96-3.03-6.93-6.83-8.91-11.41-1.98-4.58-2.97-9.51-2.97-14.79s.99-10.21,2.97-14.79c1.98-4.58,4.95-8.39,8.91-11.41,3.96-3.03,8.89-4.54,14.79-4.54,3.96,0,7.34,.8,10.13,2.39,2.8,1.59,5.16,3.59,7.1,6V0h18.05Zm-30.16,67.67c2.25,0,4.15-.45,5.71-1.34,1.55-.89,2.8-2.08,3.73-3.55,.93-1.47,1.61-3.14,2.04-5.01,.43-1.86,.64-3.77,.64-5.71s-.21-3.84-.64-5.71c-.43-1.86-1.11-3.53-2.04-5.01-.93-1.47-2.17-2.66-3.73-3.55-1.55-.89-3.46-1.34-5.71-1.34-3.03,0-5.53,.78-7.51,2.33-1.98,1.55-3.48,3.48-4.48,5.76-1.01,2.29-1.51,4.78-1.51,7.45s.5,5.16,1.51,7.45c1.01,2.29,2.5,4.21,4.48,5.77,1.98,1.55,4.48,2.33,7.51,2.33v.12Z"/><path class="d" d="M237.94,81.53V0h18.05V81.53h-18.05Z"/><path class="d" d="M329.48,81.53h-18.05v-7.28c-1.94,2.43-4.31,4.44-7.1,6.04-2.8,1.6-6.17,2.41-10.13,2.41-4.43,0-8.31-.87-11.65-2.62-3.34-1.75-6.11-4.08-8.33-6.99-2.21-2.91-3.86-6.19-4.95-9.84-1.09-3.65-1.63-7.41-1.63-11.3s.54-7.55,1.63-11.24c1.09-3.69,2.74-6.99,4.95-9.9,2.21-2.91,4.99-5.24,8.33-6.99,3.34-1.75,7.22-2.62,11.65-2.62,3.96,0,7.34,.8,10.13,2.41,2.8,1.6,5.16,3.62,7.1,6.04v-7.28h18.05v59.16Zm-43.79-29.58c0,1.93,.29,3.82,.88,5.66,.58,1.85,1.44,3.51,2.57,4.97,1.13,1.46,2.54,2.64,4.21,3.53,1.68,.89,3.65,1.33,5.91,1.33s4.17-.44,5.73-1.33c1.56-.89,2.81-2.06,3.74-3.53,.94-1.46,1.62-3.12,2.05-4.97,.43-1.85,.64-3.74,.64-5.66s-.21-3.81-.64-5.66-1.11-3.51-2.05-4.97c-.93-1.46-2.18-2.64-3.74-3.53-1.56-.89-3.47-1.33-5.73-1.33s-4.23,.44-5.91,1.33c-1.68,.89-3.08,2.06-4.21,3.53-1.13,1.46-1.99,3.12-2.57,4.97-.59,1.85-.88,3.74-.88,5.66Z"/><path class="d" d="M341.01,22.25h17.94v5.94c2.02-2.25,4.42-4,7.18-5.24,2.76-1.24,5.61-1.98,8.53-2.21,2.92-.23,5.82,.02,8.7,.76,2.88,.74,5.45,2,7.71,3.79,2.26,1.79,4.09,4.12,5.49,6.99,1.4,2.87,2.1,6.29,2.1,10.25,0,1.24,.02,2.52,.06,3.84,.04,1.32,.06,2.72,.06,4.19v30.86h-18.05V46.3c0-1.44-.16-2.8-.47-4.08-.31-1.28-.86-2.45-1.64-3.49-.78-1.05-1.95-1.88-3.51-2.5-1.8-.7-3.69-.82-5.68-.35-1.99,.47-3.84,1.36-5.56,2.68-1.41,1.09-2.46,2.23-3.16,3.44-.7,1.2-1.17,2.47-1.41,3.79-.23,1.32-.33,2.7-.29,4.13,.04,1.44,.06,2.93,.06,4.48v27.14h-17.94l-.12-59.28Z"/><path class="d" d="M472.38,0V81.53h-18.05v-7.22c-1.94,2.41-4.31,4.41-7.1,6-2.8,1.59-6.17,2.39-10.13,2.39-5.9,0-10.83-1.51-14.79-4.54-3.96-3.03-6.93-6.83-8.91-11.41-1.98-4.58-2.97-9.51-2.97-14.79s.99-10.21,2.97-14.79c1.98-4.58,4.95-8.39,8.91-11.41,3.96-3.03,8.89-4.54,14.79-4.54,3.96,0,7.34,.8,10.13,2.39,2.8,1.59,5.16,3.59,7.1,6V0h18.05Zm-30.16,67.67c2.25,0,4.15-.45,5.71-1.34,1.55-.89,2.8-2.08,3.73-3.55,.93-1.47,1.61-3.14,2.04-5.01,.43-1.86,.64-3.77,.64-5.71s-.21-3.84-.64-5.71c-.43-1.86-1.11-3.53-2.04-5.01-.93-1.47-2.17-2.66-3.73-3.55-1.55-.89-3.46-1.34-5.71-1.34-3.03,0-5.53,.78-7.51,2.33-1.98,1.55-3.48,3.48-4.48,5.76-1.01,2.29-1.51,4.78-1.51,7.45s.5,5.16,1.51,7.45c1.01,2.29,2.5,4.21,4.48,5.77,1.98,1.55,4.48,2.33,7.51,2.33v.12Z"/><path class="d" d="M483.91,0h18.05V15.49h-18.05V0Zm18.05,22.36v59.16h-18.05V22.36h18.05Z"/><path class="d" d="M575.45,81.53h-18.05v-7.28c-1.94,2.43-4.31,4.44-7.1,6.04-2.8,1.6-6.17,2.41-10.13,2.41-4.43,0-8.31-.87-11.65-2.62-3.34-1.75-6.11-4.08-8.33-6.99-2.21-2.91-3.86-6.19-4.95-9.84-1.09-3.65-1.63-7.41-1.63-11.3s.54-7.55,1.63-11.24c1.09-3.69,2.74-6.99,4.95-9.9,2.21-2.91,4.99-5.24,8.33-6.99,3.34-1.75,7.22-2.62,11.65-2.62,3.96,0,7.34,.8,10.13,2.41,2.8,1.6,5.16,3.62,7.1,6.04v-7.28h18.05v59.16Zm-43.79-29.58c0,1.93,.29,3.82,.88,5.66,.58,1.85,1.44,3.51,2.57,4.97,1.13,1.46,2.54,2.64,4.21,3.53,1.68,.89,3.65,1.33,5.91,1.33s4.17-.44,5.73-1.33c1.56-.89,2.81-2.06,3.74-3.53,.94-1.46,1.62-3.12,2.05-4.97,.43-1.85,.64-3.74,.64-5.66s-.21-3.81-.64-5.66c-.43-1.85-1.11-3.51-2.05-4.97-.93-1.46-2.18-2.64-3.74-3.53-1.56-.89-3.47-1.33-5.73-1.33s-4.23,.44-5.91,1.33c-1.68,.89-3.08,2.06-4.21,3.53-1.13,1.46-1.99,3.12-2.57,4.97-.59,1.85-.88,3.74-.88,5.66Z"/><path d="M622.73,81.53V.12h18.05V66.27h43.32v15.26h-61.38Z"/><path d="M757.6,81.53h-18.05v-7.28c-1.94,2.43-4.31,4.44-7.1,6.04-2.8,1.6-6.17,2.41-10.13,2.41-4.43,0-8.31-.87-11.65-2.62-3.34-1.75-6.11-4.08-8.33-6.99-2.21-2.91-3.86-6.19-4.95-9.84-1.09-3.65-1.63-7.41-1.63-11.3s.54-7.55,1.63-11.24c1.09-3.69,2.74-6.99,4.95-9.9,2.21-2.91,4.99-5.24,8.33-6.99,3.34-1.75,7.22-2.62,11.65-2.62,3.96,0,7.34,.8,10.13,2.41,2.8,1.6,5.16,3.62,7.1,6.04v-7.28h18.05v59.16Zm-43.79-29.58c0,1.93,.29,3.82,.88,5.66,.58,1.85,1.44,3.51,2.57,4.97,1.13,1.46,2.54,2.64,4.21,3.53,1.68,.89,3.65,1.33,5.91,1.33s4.17-.44,5.73-1.33c1.56-.89,2.81-2.06,3.74-3.53,.94-1.46,1.62-3.12,2.05-4.97,.43-1.85,.64-3.74,.64-5.66s-.21-3.81-.64-5.66-1.11-3.51-2.05-4.97c-.93-1.46-2.18-2.64-3.74-3.53-1.56-.89-3.47-1.33-5.73-1.33s-4.23,.44-5.91,1.33c-1.68,.89-3.08,2.06-4.21,3.53-1.13,1.46-1.99,3.12-2.57,4.97-.59,1.85-.88,3.74-.88,5.66Z"/><path d="M787.29,0V29.65c1.94-2.42,4.31-4.44,7.1-6.04,2.8-1.6,6.17-2.41,10.13-2.41,5.9,0,10.83,1.51,14.79,4.54,3.96,3.03,6.93,6.83,8.91,11.41,1.98,4.58,2.97,9.51,2.97,14.79s-.99,10.21-2.97,14.79c-1.98,4.58-4.95,8.39-8.91,11.41-3.96,3.03-8.89,4.54-14.79,4.54-3.96,0-7.34-.8-10.13-2.39-2.8-1.59-5.16-3.59-7.1-6v7.22h-18.05V0h18.05Zm0,51.83c0,1.94,.21,3.84,.64,5.71,.43,1.86,1.11,3.53,2.04,5.01,.93,1.48,2.17,2.66,3.73,3.55,1.55,.89,3.45,1.34,5.71,1.34,3.03,0,5.53-.77,7.51-2.32,1.98-1.55,3.47-3.46,4.48-5.74,1.01-2.28,1.51-4.76,1.51-7.43s-.51-5.14-1.51-7.43c-1.01-2.28-2.5-4.2-4.48-5.74-1.98-1.55-4.48-2.32-7.51-2.32-2.25,0-4.15,.44-5.71,1.33-1.55,.89-2.8,2.06-3.73,3.53-.93,1.46-1.61,3.12-2.04,4.97-.43,1.85-.64,3.74-.64,5.66v-.12Z"/><path d="M881.05,41.58c-1.94-2.1-4.04-3.69-6.29-4.77-2.25-1.09-4.45-1.79-6.58-2.1-2.14-.31-4.04-.31-5.71,0-1.67,.31-2.85,.84-3.55,1.57-.7,.74-.76,1.59-.17,2.56,.58,.97,2.04,1.92,4.37,2.85,.85,.39,1.73,.72,2.62,.99,.89,.27,1.77,.56,2.62,.87l5.94,2.1,3.49,1.4c2.17,.86,4.13,1.79,5.88,2.8,1.75,1.01,3.26,2.17,4.54,3.49,1.28,1.32,2.25,2.89,2.91,4.72,.66,1.83,.99,3.94,.99,6.35,0,1.55-.25,3.07-.76,4.54-.51,1.48-1.18,2.84-2.04,4.08-2.1,3.18-4.81,5.47-8.15,6.87-2.1,.86-4.29,1.5-6.58,1.92-2.29,.43-4.6,.64-6.93,.64-2.64,0-5.24-.23-7.8-.7-.62-.16-1.2-.27-1.75-.35-.54-.08-1.09-.19-1.63-.35-2.33-.62-4.54-1.44-6.64-2.45-2.1-1.01-4.12-2.21-6.06-3.61l-2.8-2.1-1.4-1.16,10.95-12.11c1.32,1.63,3.12,3.16,5.42,4.6,2.29,1.44,4.66,2.56,7.1,3.38,2.45,.82,4.75,1.22,6.93,1.22s3.8-.66,4.89-1.98c.62-.78,.72-1.53,.29-2.27-.43-.74-1.18-1.46-2.27-2.15-1.09-.7-2.39-1.38-3.9-2.04-1.51-.66-3.05-1.26-4.6-1.81-1.55-.54-2.97-1.03-4.25-1.46-1.28-.43-2.23-.76-2.85-.99-2.17-.85-4.15-1.77-5.94-2.74-1.79-.97-3.34-2.11-4.66-3.44-1.32-1.32-2.33-2.85-3.03-4.6-.7-1.75-1.05-3.86-1.05-6.35,0-3.1,.82-5.9,2.45-8.39,2.1-3.18,4.81-5.47,8.15-6.87,2.1-.85,4.29-1.49,6.58-1.92,2.29-.43,4.6-.64,6.93-.64,2.56,0,5.12,.23,7.69,.7,.62,.16,1.2,.27,1.75,.35,.54,.08,1.09,.19,1.63,.35,2.33,.62,4.54,1.44,6.64,2.45,2.1,1.01,4.11,2.21,6.06,3.61l1.63,1.16-11.06,12.23v-.47Z"/></g></g></g></svg>