<?xml version="1.0" encoding="UTF-8"?><svg xmlns="http://www.w3.org/2000/svg" xmlns:xlink="http://www.w3.org/1999/xlink" viewBox="0 0 323.97 255.47"><defs><style>.e{fill:#8b5cf6;}.f{isolation:isolate;}.g{fill:url(#d);mix-blend-mode:lighten;opacity:.69;}</style><linearGradient id="d" x1="164.53" y1="68.08" x2="1.77" y2="211.55" gradientTransform="matrix(1, 0, 0, 1, 0, 0)" gradientUnits="userSpaceOnUse"><stop offset="0" stop-color="#8b5cf6"/><stop offset="1" stop-color="#fff"/></linearGradient></defs><g class="f"><g id="a"/><g id="b"><g id="c"><g><circle cx="41.27" cy="214.2" r="41.27"/><rect x="36.54" y="124.89" width="82.54" height="104.26" transform="translate(146.38 -3.78) rotate(44.5)"/><path d="M228.52,189.52h63.78c17.48,0,31.67,14.19,31.67,31.67h0c0,17.48-14.19,31.67-31.67,31.67h-63.78v-63.34h0Z"/><path class="e" d="M221.58,252.77c-27.77-1.74-61.9-37.03-127.28-66.53-63.94-28.86-85.83,3.17-86.76,4.58L57.81,94.21,99.02,14.95c10.34-19.88,38.71-19.95,49.15-.14,18.4,35.01,43.97,83.49,65.33,123.53,16.85,31.52,31.08,57.81,37.19,68.15,20.06,33.95-1.34,48.02-29.11,46.28Z"/><polygon class="e" points="236.82 181.64 276.25 252.91 228.52 252.86 215.21 207.07 236.82 181.64"/><path class="g" d="M213.5,138.34c-7.06,.69-14.21,1.04-21.43,1.04-50.45,0-96.98-16.8-134.26-45.17L99.02,14.95c10.34-19.88,38.71-19.95,49.15-.14,18.4,35.01,43.97,83.49,65.33,123.53Z"/></g></g></g></g></svg>