<?xml version="1.0" encoding="UTF-8"?><svg xmlns="http://www.w3.org/2000/svg" xmlns:xlink="http://www.w3.org/1999/xlink" viewBox="0 0 323.97 255.47"><defs><style>.g{fill:#fff;}.h{fill:url(#f);}.i{fill:url(#d);}.j{fill:url(#e);}</style><linearGradient id="d" x1="58.59" y1="192.6" x2="111.31" y2="126.84" gradientTransform="matrix(1, 0, 0, 1, 0, 0)" gradientUnits="userSpaceOnUse"><stop offset="0" stop-color="#fff"/><stop offset="1" stop-color="#000"/></linearGradient><linearGradient id="e" x1="62.68" y1="195.88" x2="115.4" y2="130.12" gradientTransform="translate(-101.76 105.29) rotate(-44.5)" xlink:href="#d"/><linearGradient id="f" x1="287.61" y1="221.19" x2="169.33" y2="221.19" xlink:href="#d"/></defs><g id="a"/><g id="b"><g id="c"><g><circle class="i" cx="41.27" cy="214.2" r="41.27"/><rect class="j" x="36.54" y="124.89" width="82.54" height="104.26" transform="translate(146.38 -3.78) rotate(44.5)"/><path class="h" d="M228.52,189.52h63.78c17.48,0,31.67,14.19,31.67,31.67h0c0,17.48-14.19,31.67-31.67,31.67h-63.78v-63.34h0Z"/><path class="g" d="M221.58,252.77c-27.77-1.74-61.9-37.03-127.28-66.53-63.94-28.86-85.83,3.17-86.76,4.58L57.81,94.21,99.02,14.95c10.34-19.88,38.71-19.95,49.15-.14,18.4,35.01,43.97,83.49,65.33,123.53,16.85,31.52,31.08,57.81,37.19,68.15,20.06,33.95-1.34,48.02-29.11,46.28Z"/><polygon class="g" points="236.82 181.64 276.25 252.91 228.52 252.86 215.21 207.07 236.82 181.64"/></g></g></g></svg>